<svg width="1363" height="163" viewBox="0 0 1363 163" fill="none" xmlns="http://www.w3.org/2000/svg">
<path d="M0 15C0 6.71573 6.71573 0 15 0H37V163H15C6.71573 163 0 156.284 0 148V15Z" fill="#424242"/>
<rect width="1097" height="163" transform="translate(37)" fill="#F0F0F0"/>
<path d="M101.906 53.9219L94.3945 51.2383V48.0859L104.602 52.375V54.6367L101.906 53.9219ZM94.3945 56.1719L101.918 53.4297L104.602 52.7852V55.0352L94.3945 59.3242V56.1719ZM122.32 43.9375H125.824V55.2109C125.824 56.5234 125.543 57.6289 124.98 58.5273C124.426 59.4258 123.656 60.1016 122.672 60.5547C121.695 61.0078 120.57 61.2344 119.297 61.2344C118.023 61.2344 116.891 61.0078 115.898 60.5547C114.914 60.1016 114.141 59.4258 113.578 58.5273C113.023 57.6289 112.746 56.5234 112.746 55.2109V43.9375H116.262V55.2109C116.262 55.9766 116.383 56.6016 116.625 57.0859C116.867 57.5703 117.215 57.9258 117.668 58.1523C118.129 58.3789 118.672 58.4922 119.297 58.4922C119.938 58.4922 120.48 58.3789 120.926 58.1523C121.379 57.9258 121.723 57.5703 121.957 57.0859C122.199 56.6016 122.32 55.9766 122.32 55.2109V43.9375ZM131.812 51.0273V61H128.438V48.3203H131.602L131.812 51.0273ZM131.32 54.2148H130.406C130.406 53.2773 130.527 52.4336 130.77 51.6836C131.012 50.9258 131.352 50.2812 131.789 49.75C132.227 49.2109 132.746 48.8008 133.348 48.5195C133.957 48.2305 134.637 48.0859 135.387 48.0859C135.98 48.0859 136.523 48.1719 137.016 48.3438C137.508 48.5156 137.93 48.7891 138.281 49.1641C138.641 49.5391 138.914 50.0352 139.102 50.6523C139.297 51.2695 139.395 52.0234 139.395 52.9141V61H135.996V52.9023C135.996 52.3398 135.918 51.9023 135.762 51.5898C135.605 51.2773 135.375 51.0586 135.07 50.9336C134.773 50.8008 134.406 50.7344 133.969 50.7344C133.516 50.7344 133.121 50.8242 132.785 51.0039C132.457 51.1836 132.184 51.4336 131.965 51.7539C131.754 52.0664 131.594 52.4336 131.484 52.8555C131.375 53.2773 131.32 53.7305 131.32 54.2148ZM145.523 48.3203V61H142.137V48.3203H145.523ZM141.926 45.0156C141.926 44.5234 142.098 44.1172 142.441 43.7969C142.785 43.4766 143.246 43.3164 143.824 43.3164C144.395 43.3164 144.852 43.4766 145.195 43.7969C145.547 44.1172 145.723 44.5234 145.723 45.0156C145.723 45.5078 145.547 45.9141 145.195 46.2344C144.852 46.5547 144.395 46.7148 143.824 46.7148C143.246 46.7148 142.785 46.5547 142.441 46.2344C142.098 45.9141 141.926 45.5078 141.926 45.0156ZM154.523 48.3203V50.7109H147.141V48.3203H154.523ZM148.969 45.1914H152.344V57.1797C152.344 57.5469 152.391 57.8281 152.484 58.0234C152.586 58.2188 152.734 58.3555 152.93 58.4336C153.125 58.5039 153.371 58.5391 153.668 58.5391C153.879 58.5391 154.066 58.5312 154.23 58.5156C154.402 58.4922 154.547 58.4688 154.664 58.4453L154.676 60.9297C154.387 61.0234 154.074 61.0977 153.738 61.1523C153.402 61.207 153.031 61.2344 152.625 61.2344C151.883 61.2344 151.234 61.1133 150.68 60.8711C150.133 60.6211 149.711 60.2227 149.414 59.6758C149.117 59.1289 148.969 58.4102 148.969 57.5195V45.1914ZM160.207 59.5703L163.57 48.3203H167.191L162.094 62.9102C161.984 63.2305 161.836 63.5742 161.648 63.9414C161.469 64.3086 161.223 64.6562 160.91 64.9844C160.605 65.3203 160.219 65.5938 159.75 65.8047C159.289 66.0156 158.723 66.1211 158.051 66.1211C157.73 66.1211 157.469 66.1016 157.266 66.0625C157.062 66.0234 156.82 65.9688 156.539 65.8984V63.4258C156.625 63.4258 156.715 63.4258 156.809 63.4258C156.902 63.4336 156.992 63.4375 157.078 63.4375C157.523 63.4375 157.887 63.3867 158.168 63.2852C158.449 63.1836 158.676 63.0273 158.848 62.8164C159.02 62.6133 159.156 62.3477 159.258 62.0195L160.207 59.5703ZM158.801 48.3203L161.555 57.5078L162.035 61.082L159.738 61.3281L155.18 48.3203H158.801ZM181.371 54.918H177.023V52.1758H181.371C182.043 52.1758 182.59 52.0664 183.012 51.8477C183.434 51.6211 183.742 51.3086 183.938 50.9102C184.133 50.5117 184.23 50.0625 184.23 49.5625C184.23 49.0547 184.133 48.582 183.938 48.1445C183.742 47.707 183.434 47.3555 183.012 47.0898C182.59 46.8242 182.043 46.6914 181.371 46.6914H178.242V61H174.727V43.9375H181.371C182.707 43.9375 183.852 44.1797 184.805 44.6641C185.766 45.1406 186.5 45.8008 187.008 46.6445C187.516 47.4883 187.77 48.4531 187.77 49.5391C187.77 50.6406 187.516 51.5938 187.008 52.3984C186.5 53.2031 185.766 53.8242 184.805 54.2617C183.852 54.6992 182.707 54.918 181.371 54.918ZM197.484 57.9648V48.3203H200.859V61H197.684L197.484 57.9648ZM197.859 55.3633L198.855 55.3398C198.855 56.1836 198.758 56.9688 198.562 57.6953C198.367 58.4141 198.074 59.0391 197.684 59.5703C197.293 60.0938 196.801 60.5039 196.207 60.8008C195.613 61.0898 194.914 61.2344 194.109 61.2344C193.492 61.2344 192.922 61.1484 192.398 60.9766C191.883 60.7969 191.438 60.5195 191.062 60.1445C190.695 59.7617 190.406 59.2734 190.195 58.6797C189.992 58.0781 189.891 57.3555 189.891 56.5117V48.3203H193.266V56.5352C193.266 56.9102 193.309 57.2266 193.395 57.4844C193.488 57.7422 193.617 57.9531 193.781 58.1172C193.945 58.2812 194.137 58.3984 194.355 58.4688C194.582 58.5391 194.832 58.5742 195.105 58.5742C195.801 58.5742 196.348 58.4336 196.746 58.1523C197.152 57.8711 197.438 57.4883 197.602 57.0039C197.773 56.5117 197.859 55.9648 197.859 55.3633ZM207 43V61H203.613V43H207ZM216.645 57.4961C216.645 57.2539 216.574 57.0352 216.434 56.8398C216.293 56.6445 216.031 56.4648 215.648 56.3008C215.273 56.1289 214.73 55.9727 214.02 55.832C213.379 55.6914 212.781 55.5156 212.227 55.3047C211.68 55.0859 211.203 54.8242 210.797 54.5195C210.398 54.2148 210.086 53.8555 209.859 53.4414C209.633 53.0195 209.52 52.5391 209.52 52C209.52 51.4688 209.633 50.9688 209.859 50.5C210.094 50.0312 210.426 49.6172 210.855 49.2578C211.293 48.8906 211.824 48.6055 212.449 48.4023C213.082 48.1914 213.793 48.0859 214.582 48.0859C215.684 48.0859 216.629 48.2617 217.418 48.6133C218.215 48.9648 218.824 49.4492 219.246 50.0664C219.676 50.6758 219.891 51.3711 219.891 52.1523H216.516C216.516 51.8242 216.445 51.5312 216.305 51.2734C216.172 51.0078 215.961 50.8008 215.672 50.6523C215.391 50.4961 215.023 50.418 214.57 50.418C214.195 50.418 213.871 50.4844 213.598 50.6172C213.324 50.7422 213.113 50.9141 212.965 51.1328C212.824 51.3438 212.754 51.5781 212.754 51.8359C212.754 52.0312 212.793 52.207 212.871 52.3633C212.957 52.5117 213.094 52.6484 213.281 52.7734C213.469 52.8984 213.711 53.0156 214.008 53.125C214.312 53.2266 214.688 53.3203 215.133 53.4062C216.047 53.5938 216.863 53.8398 217.582 54.1445C218.301 54.4414 218.871 54.8477 219.293 55.3633C219.715 55.8711 219.926 56.5391 219.926 57.3672C219.926 57.9297 219.801 58.4453 219.551 58.9141C219.301 59.3828 218.941 59.793 218.473 60.1445C218.004 60.4883 217.441 60.7578 216.785 60.9531C216.137 61.1406 215.406 61.2344 214.594 61.2344C213.414 61.2344 212.414 61.0234 211.594 60.6016C210.781 60.1797 210.164 59.6445 209.742 58.9961C209.328 58.3398 209.121 57.668 209.121 56.9805H212.32C212.336 57.4414 212.453 57.8125 212.672 58.0938C212.898 58.375 213.184 58.5781 213.527 58.7031C213.879 58.8281 214.258 58.8906 214.664 58.8906C215.102 58.8906 215.465 58.832 215.754 58.7148C216.043 58.5898 216.262 58.4258 216.41 58.2227C216.566 58.0117 216.645 57.7695 216.645 57.4961ZM227.953 61.2344C226.969 61.2344 226.086 61.0781 225.305 60.7656C224.523 60.4453 223.859 60.0039 223.312 59.4414C222.773 58.8789 222.359 58.2266 222.07 57.4844C221.781 56.7344 221.637 55.9375 221.637 55.0938V54.625C221.637 53.6641 221.773 52.7852 222.047 51.9883C222.32 51.1914 222.711 50.5 223.219 49.9141C223.734 49.3281 224.359 48.8789 225.094 48.5664C225.828 48.2461 226.656 48.0859 227.578 48.0859C228.477 48.0859 229.273 48.2344 229.969 48.5312C230.664 48.8281 231.246 49.25 231.715 49.7969C232.191 50.3438 232.551 51 232.793 51.7656C233.035 52.5234 233.156 53.3672 233.156 54.2969V55.7031H223.078V53.4531H229.84V53.1953C229.84 52.7266 229.754 52.3086 229.582 51.9414C229.418 51.5664 229.168 51.2695 228.832 51.0508C228.496 50.832 228.066 50.7227 227.543 50.7227C227.098 50.7227 226.715 50.8203 226.395 51.0156C226.074 51.2109 225.812 51.4844 225.609 51.8359C225.414 52.1875 225.266 52.6016 225.164 53.0781C225.07 53.5469 225.023 54.0625 225.023 54.625V55.0938C225.023 55.6016 225.094 56.0703 225.234 56.5C225.383 56.9297 225.59 57.3008 225.855 57.6133C226.129 57.9258 226.457 58.168 226.84 58.3398C227.23 58.5117 227.672 58.5977 228.164 58.5977C228.773 58.5977 229.34 58.4805 229.863 58.2461C230.395 58.0039 230.852 57.6406 231.234 57.1562L232.875 58.9375C232.609 59.3203 232.246 59.6875 231.785 60.0391C231.332 60.3906 230.785 60.6797 230.145 60.9062C229.504 61.125 228.773 61.2344 227.953 61.2344Z" fill="#888888"/>
<path d="M118.594 98.4219V104.75H101.086V98.4219H118.594ZM103.828 84.875V119H95.6016V84.875H103.828ZM124.125 84.875V119H115.922V84.875H124.125ZM127.992 106.578V106.086C127.992 104.227 128.258 102.516 128.789 100.953C129.32 99.375 130.102 98.0078 131.133 96.8516C132.164 95.6953 133.438 94.7969 134.953 94.1562C136.469 93.5 138.219 93.1719 140.203 93.1719C142.203 93.1719 143.961 93.5 145.477 94.1562C147.008 94.7969 148.289 95.6953 149.32 96.8516C150.352 98.0078 151.133 99.375 151.664 100.953C152.195 102.516 152.461 104.227 152.461 106.086V106.578C152.461 108.422 152.195 110.133 151.664 111.711C151.133 113.273 150.352 114.641 149.32 115.812C148.289 116.969 147.016 117.867 145.5 118.508C143.984 119.148 142.234 119.469 140.25 119.469C138.266 119.469 136.508 119.148 134.977 118.508C133.445 117.867 132.164 116.969 131.133 115.812C130.102 114.641 129.32 113.273 128.789 111.711C128.258 110.133 127.992 108.422 127.992 106.578ZM135.891 106.086V106.578C135.891 107.531 135.961 108.422 136.102 109.25C136.242 110.078 136.477 110.805 136.805 111.43C137.133 112.039 137.578 112.516 138.141 112.859C138.703 113.203 139.406 113.375 140.25 113.375C141.078 113.375 141.766 113.203 142.312 112.859C142.875 112.516 143.32 112.039 143.648 111.43C143.977 110.805 144.211 110.078 144.352 109.25C144.492 108.422 144.562 107.531 144.562 106.578V106.086C144.562 105.164 144.492 104.297 144.352 103.484C144.211 102.656 143.977 101.93 143.648 101.305C143.32 100.664 142.875 100.164 142.312 99.8047C141.75 99.4453 141.047 99.2656 140.203 99.2656C139.375 99.2656 138.68 99.4453 138.117 99.8047C137.57 100.164 137.133 100.664 136.805 101.305C136.477 101.93 136.242 102.656 136.102 103.484C135.961 104.297 135.891 105.164 135.891 106.086ZM163.688 111.453L168.375 93.6406H173.32L171.562 102.57L166.922 119H162.961L163.688 111.453ZM161.836 93.6406L164.742 111.312L165.07 119H160.266L154.266 93.6406H161.836ZM177.492 110.938L180.422 93.6406H187.992L182.039 119H177.234L177.492 110.938ZM173.883 93.6406L178.617 111.406L179.344 119H175.336L170.789 102.617L169.102 93.6406H173.883ZM218.297 84.875V119H210.07V84.875H218.297ZM228.562 84.875V91.2266H200.039V84.875H228.562ZM225.773 106.578V106.086C225.773 104.227 226.039 102.516 226.57 100.953C227.102 99.375 227.883 98.0078 228.914 96.8516C229.945 95.6953 231.219 94.7969 232.734 94.1562C234.25 93.5 236 93.1719 237.984 93.1719C239.984 93.1719 241.742 93.5 243.258 94.1562C244.789 94.7969 246.07 95.6953 247.102 96.8516C248.133 98.0078 248.914 99.375 249.445 100.953C249.977 102.516 250.242 104.227 250.242 106.086V106.578C250.242 108.422 249.977 110.133 249.445 111.711C248.914 113.273 248.133 114.641 247.102 115.812C246.07 116.969 244.797 117.867 243.281 118.508C241.766 119.148 240.016 119.469 238.031 119.469C236.047 119.469 234.289 119.148 232.758 118.508C231.227 117.867 229.945 116.969 228.914 115.812C227.883 114.641 227.102 113.273 226.57 111.711C226.039 110.133 225.773 108.422 225.773 106.578ZM233.672 106.086V106.578C233.672 107.531 233.742 108.422 233.883 109.25C234.023 110.078 234.258 110.805 234.586 111.43C234.914 112.039 235.359 112.516 235.922 112.859C236.484 113.203 237.188 113.375 238.031 113.375C238.859 113.375 239.547 113.203 240.094 112.859C240.656 112.516 241.102 112.039 241.43 111.43C241.758 110.805 241.992 110.078 242.133 109.25C242.273 108.422 242.344 107.531 242.344 106.578V106.086C242.344 105.164 242.273 104.297 242.133 103.484C241.992 102.656 241.758 101.93 241.43 101.305C241.102 100.664 240.656 100.164 240.094 99.8047C239.531 99.4453 238.828 99.2656 237.984 99.2656C237.156 99.2656 236.461 99.4453 235.898 99.8047C235.352 100.164 234.914 100.664 234.586 101.305C234.258 101.93 234.023 102.656 233.883 103.484C233.742 104.297 233.672 105.164 233.672 106.086ZM266.086 84.875H279.516C282.141 84.875 284.422 85.2656 286.359 86.0469C288.297 86.8281 289.789 87.9844 290.836 89.5156C291.898 91.0469 292.43 92.9375 292.43 95.1875C292.43 97.1406 292.125 98.7734 291.516 100.086C290.906 101.398 290.055 102.484 288.961 103.344C287.883 104.188 286.625 104.883 285.188 105.43L282.492 106.953H271.219L271.172 100.602H279.516C280.562 100.602 281.43 100.414 282.117 100.039C282.805 99.6641 283.32 99.1328 283.664 98.4453C284.023 97.7422 284.203 96.9062 284.203 95.9375C284.203 94.9531 284.023 94.1094 283.664 93.4062C283.305 92.7031 282.773 92.1641 282.07 91.7891C281.383 91.4141 280.531 91.2266 279.516 91.2266H274.312V119H266.086V84.875ZM284.766 119L277.219 103.906L285.938 103.859L293.578 118.648V119H284.766ZM311.836 112.836V93.6406H319.758V119H312.352L311.836 112.836ZM312.586 107.68L314.648 107.633C314.648 109.336 314.445 110.914 314.039 112.367C313.633 113.805 313.031 115.055 312.234 116.117C311.453 117.18 310.484 118.008 309.328 118.602C308.188 119.18 306.867 119.469 305.367 119.469C304.117 119.469 302.969 119.297 301.922 118.953C300.891 118.594 300 118.039 299.25 117.289C298.5 116.523 297.914 115.547 297.492 114.359C297.086 113.156 296.883 111.719 296.883 110.047V93.6406H304.781V110.094C304.781 110.656 304.852 111.141 304.992 111.547C305.133 111.953 305.336 112.297 305.602 112.578C305.867 112.844 306.195 113.047 306.586 113.188C306.992 113.312 307.453 113.375 307.969 113.375C309.156 113.375 310.086 113.125 310.758 112.625C311.43 112.125 311.898 111.445 312.164 110.586C312.445 109.727 312.586 108.758 312.586 107.68ZM331.875 99.0547V119H323.977V93.6406H331.383L331.875 99.0547ZM330.938 105.453L329.086 105.5C329.086 103.562 329.32 101.836 329.789 100.32C330.258 98.7891 330.922 97.4922 331.781 96.4297C332.641 95.3672 333.664 94.5625 334.852 94.0156C336.055 93.4531 337.391 93.1719 338.859 93.1719C340.031 93.1719 341.102 93.3438 342.07 93.6875C343.055 94.0312 343.898 94.5859 344.602 95.3516C345.32 96.1172 345.867 97.1328 346.242 98.3984C346.633 99.6484 346.828 101.195 346.828 103.039V119H338.883V103.016C338.883 102 338.742 101.227 338.461 100.695C338.18 100.148 337.773 99.7734 337.242 99.5703C336.711 99.3672 336.062 99.2656 335.297 99.2656C334.484 99.2656 333.797 99.4219 333.234 99.7344C332.672 100.047 332.219 100.484 331.875 101.047C331.547 101.594 331.305 102.242 331.148 102.992C331.008 103.742 330.938 104.562 330.938 105.453ZM363.773 108.195H357.047C357.047 106.82 357.141 105.609 357.328 104.562C357.531 103.5 357.875 102.547 358.359 101.703C358.844 100.859 359.5 100.078 360.328 99.3594C361.062 98.75 361.695 98.1641 362.227 97.6016C362.758 97.0391 363.164 96.4688 363.445 95.8906C363.727 95.3125 363.867 94.6953 363.867 94.0391C363.867 93.2266 363.75 92.5625 363.516 92.0469C363.297 91.5312 362.961 91.1484 362.508 90.8984C362.07 90.6328 361.516 90.5 360.844 90.5C360.297 90.5 359.781 90.6328 359.297 90.8984C358.828 91.1641 358.445 91.5781 358.148 92.1406C357.852 92.6875 357.688 93.4141 357.656 94.3203H349.711C349.758 91.9922 350.273 90.1016 351.258 88.6484C352.258 87.1797 353.586 86.1094 355.242 85.4375C356.914 84.75 358.781 84.4062 360.844 84.4062C363.125 84.4062 365.086 84.7578 366.727 85.4609C368.367 86.1641 369.625 87.2109 370.5 88.6016C371.375 89.9766 371.812 91.6719 371.812 93.6875C371.812 95.0312 371.555 96.2031 371.039 97.2031C370.539 98.1875 369.859 99.1094 369 99.9688C368.156 100.812 367.211 101.719 366.164 102.688C365.258 103.484 364.641 104.297 364.312 105.125C363.984 105.938 363.805 106.961 363.773 108.195ZM356.086 115.32C356.086 114.195 356.492 113.258 357.305 112.508C358.117 111.742 359.172 111.359 360.469 111.359C361.766 111.359 362.82 111.742 363.633 112.508C364.445 113.258 364.852 114.195 364.852 115.32C364.852 116.445 364.445 117.391 363.633 118.156C362.82 118.906 361.766 119.281 360.469 119.281C359.172 119.281 358.117 118.906 357.305 118.156C356.492 117.391 356.086 116.445 356.086 115.32Z" fill="black"/>
<path d="M1134 0H1348C1356.28 0 1363 6.71573 1363 15V148C1363 156.284 1356.28 163 1348 163H1134V0Z" fill="#64CCC5"/>
<path d="M1260.62 78.8847C1263.81 78.8847 1266.93 79.805 1269.59 81.5293C1272.25 83.2536 1274.32 85.7044 1275.54 88.5718C1276.76 91.4391 1277.08 94.5943 1276.46 97.6383C1275.84 100.682 1274.3 103.478 1272.04 105.673C1269.78 107.868 1266.9 109.362 1263.77 109.968C1260.63 110.573 1257.39 110.262 1254.43 109.075C1251.48 107.887 1248.96 105.876 1247.18 103.295C1245.41 100.714 1244.46 97.6806 1244.46 94.5769C1244.46 90.4151 1246.16 86.4237 1249.19 83.4808C1252.22 80.538 1256.33 78.8847 1260.62 78.8847ZM1260.62 73.6539C1256.36 73.6539 1252.19 74.881 1248.65 77.1801C1245.11 79.4791 1242.35 82.7469 1240.72 86.57C1239.09 90.3932 1238.66 94.6001 1239.49 98.6588C1240.32 102.717 1242.37 106.446 1245.39 109.372C1248.4 112.298 1252.24 114.291 1256.41 115.098C1260.59 115.905 1264.92 115.491 1268.86 113.907C1272.79 112.324 1276.16 109.642 1278.52 106.201C1280.89 102.76 1282.15 98.7151 1282.15 94.5769C1282.15 89.0278 1279.88 83.706 1275.85 79.7821C1271.81 75.8583 1266.33 73.6539 1260.62 73.6539Z" fill="white"/>
<path d="M1274.08 47.5H1220.23C1218.8 47.5 1217.43 48.0511 1216.42 49.0321C1215.41 50.013 1214.85 51.3435 1214.85 52.7307V105.038C1214.85 106.426 1215.41 107.756 1216.42 108.737C1217.43 109.718 1218.8 110.269 1220.23 110.269H1231V105.038H1220.23V68.423H1279.46V52.7307C1279.46 51.3435 1278.89 50.013 1277.88 49.0321C1276.87 48.0511 1275.5 47.5 1274.08 47.5ZM1220.23 63.1922V52.7307H1274.08V63.1922H1220.23Z" fill="white"/>
<path d="M1255.23 86.731V102.423L1268.69 94.5771L1255.23 86.731Z" fill="white"/>
</svg>
