<svg width="1363" height="163" viewBox="0 0 1363 163" fill="none" xmlns="http://www.w3.org/2000/svg">
<path d="M0 15C0 6.71573 6.71573 0 15 0H37V163H15C6.71573 163 0 156.284 0 148V15Z" fill="#424242"/>
<rect width="1097" height="163" transform="translate(37)" fill="#F0F0F0"/>
<path d="M101.906 53.9219L94.3945 51.2383V48.0859L104.602 52.375V54.6367L101.906 53.9219ZM94.3945 56.1719L101.918 53.4297L104.602 52.7852V55.0352L94.3945 59.3242V56.1719ZM122.32 43.9375H125.824V55.2109C125.824 56.5234 125.543 57.6289 124.98 58.5273C124.426 59.4258 123.656 60.1016 122.672 60.5547C121.695 61.0078 120.57 61.2344 119.297 61.2344C118.023 61.2344 116.891 61.0078 115.898 60.5547C114.914 60.1016 114.141 59.4258 113.578 58.5273C113.023 57.6289 112.746 56.5234 112.746 55.2109V43.9375H116.262V55.2109C116.262 55.9766 116.383 56.6016 116.625 57.0859C116.867 57.5703 117.215 57.9258 117.668 58.1523C118.129 58.3789 118.672 58.4922 119.297 58.4922C119.938 58.4922 120.48 58.3789 120.926 58.1523C121.379 57.9258 121.723 57.5703 121.957 57.0859C122.199 56.6016 122.32 55.9766 122.32 55.2109V43.9375ZM131.812 51.0273V61H128.438V48.3203H131.602L131.812 51.0273ZM131.32 54.2148H130.406C130.406 53.2773 130.527 52.4336 130.77 51.6836C131.012 50.9258 131.352 50.2812 131.789 49.75C132.227 49.2109 132.746 48.8008 133.348 48.5195C133.957 48.2305 134.637 48.0859 135.387 48.0859C135.98 48.0859 136.523 48.1719 137.016 48.3438C137.508 48.5156 137.93 48.7891 138.281 49.1641C138.641 49.5391 138.914 50.0352 139.102 50.6523C139.297 51.2695 139.395 52.0234 139.395 52.9141V61H135.996V52.9023C135.996 52.3398 135.918 51.9023 135.762 51.5898C135.605 51.2773 135.375 51.0586 135.07 50.9336C134.773 50.8008 134.406 50.7344 133.969 50.7344C133.516 50.7344 133.121 50.8242 132.785 51.0039C132.457 51.1836 132.184 51.4336 131.965 51.7539C131.754 52.0664 131.594 52.4336 131.484 52.8555C131.375 53.2773 131.32 53.7305 131.32 54.2148ZM145.523 48.3203V61H142.137V48.3203H145.523ZM141.926 45.0156C141.926 44.5234 142.098 44.1172 142.441 43.7969C142.785 43.4766 143.246 43.3164 143.824 43.3164C144.395 43.3164 144.852 43.4766 145.195 43.7969C145.547 44.1172 145.723 44.5234 145.723 45.0156C145.723 45.5078 145.547 45.9141 145.195 46.2344C144.852 46.5547 144.395 46.7148 143.824 46.7148C143.246 46.7148 142.785 46.5547 142.441 46.2344C142.098 45.9141 141.926 45.5078 141.926 45.0156ZM154.523 48.3203V50.7109H147.141V48.3203H154.523ZM148.969 45.1914H152.344V57.1797C152.344 57.5469 152.391 57.8281 152.484 58.0234C152.586 58.2188 152.734 58.3555 152.93 58.4336C153.125 58.5039 153.371 58.5391 153.668 58.5391C153.879 58.5391 154.066 58.5312 154.23 58.5156C154.402 58.4922 154.547 58.4688 154.664 58.4453L154.676 60.9297C154.387 61.0234 154.074 61.0977 153.738 61.1523C153.402 61.207 153.031 61.2344 152.625 61.2344C151.883 61.2344 151.234 61.1133 150.68 60.8711C150.133 60.6211 149.711 60.2227 149.414 59.6758C149.117 59.1289 148.969 58.4102 148.969 57.5195V45.1914ZM160.207 59.5703L163.57 48.3203H167.191L162.094 62.9102C161.984 63.2305 161.836 63.5742 161.648 63.9414C161.469 64.3086 161.223 64.6562 160.91 64.9844C160.605 65.3203 160.219 65.5938 159.75 65.8047C159.289 66.0156 158.723 66.1211 158.051 66.1211C157.73 66.1211 157.469 66.1016 157.266 66.0625C157.062 66.0234 156.82 65.9688 156.539 65.8984V63.4258C156.625 63.4258 156.715 63.4258 156.809 63.4258C156.902 63.4336 156.992 63.4375 157.078 63.4375C157.523 63.4375 157.887 63.3867 158.168 63.2852C158.449 63.1836 158.676 63.0273 158.848 62.8164C159.02 62.6133 159.156 62.3477 159.258 62.0195L160.207 59.5703ZM158.801 48.3203L161.555 57.5078L162.035 61.082L159.738 61.3281L155.18 48.3203H158.801ZM181.371 54.918H177.023V52.1758H181.371C182.043 52.1758 182.59 52.0664 183.012 51.8477C183.434 51.6211 183.742 51.3086 183.938 50.9102C184.133 50.5117 184.23 50.0625 184.23 49.5625C184.23 49.0547 184.133 48.582 183.938 48.1445C183.742 47.707 183.434 47.3555 183.012 47.0898C182.59 46.8242 182.043 46.6914 181.371 46.6914H178.242V61H174.727V43.9375H181.371C182.707 43.9375 183.852 44.1797 184.805 44.6641C185.766 45.1406 186.5 45.8008 187.008 46.6445C187.516 47.4883 187.77 48.4531 187.77 49.5391C187.77 50.6406 187.516 51.5938 187.008 52.3984C186.5 53.2031 185.766 53.8242 184.805 54.2617C183.852 54.6992 182.707 54.918 181.371 54.918ZM197.484 57.9648V48.3203H200.859V61H197.684L197.484 57.9648ZM197.859 55.3633L198.855 55.3398C198.855 56.1836 198.758 56.9688 198.562 57.6953C198.367 58.4141 198.074 59.0391 197.684 59.5703C197.293 60.0938 196.801 60.5039 196.207 60.8008C195.613 61.0898 194.914 61.2344 194.109 61.2344C193.492 61.2344 192.922 61.1484 192.398 60.9766C191.883 60.7969 191.438 60.5195 191.062 60.1445C190.695 59.7617 190.406 59.2734 190.195 58.6797C189.992 58.0781 189.891 57.3555 189.891 56.5117V48.3203H193.266V56.5352C193.266 56.9102 193.309 57.2266 193.395 57.4844C193.488 57.7422 193.617 57.9531 193.781 58.1172C193.945 58.2812 194.137 58.3984 194.355 58.4688C194.582 58.5391 194.832 58.5742 195.105 58.5742C195.801 58.5742 196.348 58.4336 196.746 58.1523C197.152 57.8711 197.438 57.4883 197.602 57.0039C197.773 56.5117 197.859 55.9648 197.859 55.3633ZM207 43V61H203.613V43H207ZM216.645 57.4961C216.645 57.2539 216.574 57.0352 216.434 56.8398C216.293 56.6445 216.031 56.4648 215.648 56.3008C215.273 56.1289 214.73 55.9727 214.02 55.832C213.379 55.6914 212.781 55.5156 212.227 55.3047C211.68 55.0859 211.203 54.8242 210.797 54.5195C210.398 54.2148 210.086 53.8555 209.859 53.4414C209.633 53.0195 209.52 52.5391 209.52 52C209.52 51.4688 209.633 50.9688 209.859 50.5C210.094 50.0312 210.426 49.6172 210.855 49.2578C211.293 48.8906 211.824 48.6055 212.449 48.4023C213.082 48.1914 213.793 48.0859 214.582 48.0859C215.684 48.0859 216.629 48.2617 217.418 48.6133C218.215 48.9648 218.824 49.4492 219.246 50.0664C219.676 50.6758 219.891 51.3711 219.891 52.1523H216.516C216.516 51.8242 216.445 51.5312 216.305 51.2734C216.172 51.0078 215.961 50.8008 215.672 50.6523C215.391 50.4961 215.023 50.418 214.57 50.418C214.195 50.418 213.871 50.4844 213.598 50.6172C213.324 50.7422 213.113 50.9141 212.965 51.1328C212.824 51.3438 212.754 51.5781 212.754 51.8359C212.754 52.0312 212.793 52.207 212.871 52.3633C212.957 52.5117 213.094 52.6484 213.281 52.7734C213.469 52.8984 213.711 53.0156 214.008 53.125C214.312 53.2266 214.688 53.3203 215.133 53.4062C216.047 53.5938 216.863 53.8398 217.582 54.1445C218.301 54.4414 218.871 54.8477 219.293 55.3633C219.715 55.8711 219.926 56.5391 219.926 57.3672C219.926 57.9297 219.801 58.4453 219.551 58.9141C219.301 59.3828 218.941 59.793 218.473 60.1445C218.004 60.4883 217.441 60.7578 216.785 60.9531C216.137 61.1406 215.406 61.2344 214.594 61.2344C213.414 61.2344 212.414 61.0234 211.594 60.6016C210.781 60.1797 210.164 59.6445 209.742 58.9961C209.328 58.3398 209.121 57.668 209.121 56.9805H212.32C212.336 57.4414 212.453 57.8125 212.672 58.0938C212.898 58.375 213.184 58.5781 213.527 58.7031C213.879 58.8281 214.258 58.8906 214.664 58.8906C215.102 58.8906 215.465 58.832 215.754 58.7148C216.043 58.5898 216.262 58.4258 216.41 58.2227C216.566 58.0117 216.645 57.7695 216.645 57.4961ZM227.953 61.2344C226.969 61.2344 226.086 61.0781 225.305 60.7656C224.523 60.4453 223.859 60.0039 223.312 59.4414C222.773 58.8789 222.359 58.2266 222.07 57.4844C221.781 56.7344 221.637 55.9375 221.637 55.0938V54.625C221.637 53.6641 221.773 52.7852 222.047 51.9883C222.32 51.1914 222.711 50.5 223.219 49.9141C223.734 49.3281 224.359 48.8789 225.094 48.5664C225.828 48.2461 226.656 48.0859 227.578 48.0859C228.477 48.0859 229.273 48.2344 229.969 48.5312C230.664 48.8281 231.246 49.25 231.715 49.7969C232.191 50.3438 232.551 51 232.793 51.7656C233.035 52.5234 233.156 53.3672 233.156 54.2969V55.7031H223.078V53.4531H229.84V53.1953C229.84 52.7266 229.754 52.3086 229.582 51.9414C229.418 51.5664 229.168 51.2695 228.832 51.0508C228.496 50.832 228.066 50.7227 227.543 50.7227C227.098 50.7227 226.715 50.8203 226.395 51.0156C226.074 51.2109 225.812 51.4844 225.609 51.8359C225.414 52.1875 225.266 52.6016 225.164 53.0781C225.07 53.5469 225.023 54.0625 225.023 54.625V55.0938C225.023 55.6016 225.094 56.0703 225.234 56.5C225.383 56.9297 225.59 57.3008 225.855 57.6133C226.129 57.9258 226.457 58.168 226.84 58.3398C227.23 58.5117 227.672 58.5977 228.164 58.5977C228.773 58.5977 229.34 58.4805 229.863 58.2461C230.395 58.0039 230.852 57.6406 231.234 57.1562L232.875 58.9375C232.609 59.3203 232.246 59.6875 231.785 60.0391C231.332 60.3906 230.785 60.6797 230.145 60.9062C229.504 61.125 228.773 61.2344 227.953 61.2344Z" fill="#888888"/>
<path d="M114.117 84.875H122.344V107.164C122.344 109.82 121.789 112.07 120.68 113.914C119.57 115.742 118.016 117.125 116.016 118.062C114.016 119 111.664 119.469 108.961 119.469C106.289 119.469 103.938 119 101.906 118.062C99.8906 117.125 98.3125 115.742 97.1719 113.914C96.0469 112.07 95.4844 109.82 95.4844 107.164V84.875H103.734V107.164C103.734 108.57 103.938 109.719 104.344 110.609C104.75 111.484 105.344 112.125 106.125 112.531C106.906 112.938 107.852 113.141 108.961 113.141C110.086 113.141 111.031 112.938 111.797 112.531C112.562 112.125 113.141 111.484 113.531 110.609C113.922 109.719 114.117 108.57 114.117 107.164V84.875ZM136.266 84.875V119H128.062V84.875H136.266ZM172.523 84.875H180.75V107.164C180.75 109.82 180.195 112.07 179.086 113.914C177.977 115.742 176.422 117.125 174.422 118.062C172.422 119 170.07 119.469 167.367 119.469C164.695 119.469 162.344 119 160.312 118.062C158.297 117.125 156.719 115.742 155.578 113.914C154.453 112.07 153.891 109.82 153.891 107.164V84.875H162.141V107.164C162.141 108.57 162.344 109.719 162.75 110.609C163.156 111.484 163.75 112.125 164.531 112.531C165.312 112.938 166.258 113.141 167.367 113.141C168.492 113.141 169.438 112.938 170.203 112.531C170.969 112.125 171.547 111.484 171.938 110.609C172.328 109.719 172.523 108.57 172.523 107.164V84.875ZM193.078 84.875L198.656 96.2188L204.234 84.875H213.609L204.094 101.797L213.867 119H204.398L198.656 107.445L192.914 119H183.422L193.219 101.797L183.68 84.875H193.078Z" fill="black"/>
<path d="M1134 0H1348C1356.28 0 1363 6.71573 1363 15V148C1363 156.284 1356.28 163 1348 163H1134V0Z" fill="#64CCC5"/>
<path d="M1248.5 111.917C1244.51 111.917 1240.55 111.13 1236.86 109.601C1233.17 108.073 1229.82 105.832 1226.99 103.008C1221.29 97.3036 1218.08 89.567 1218.08 81.5C1218.08 73.433 1221.29 65.6964 1226.99 59.9922C1232.7 54.2879 1240.43 51.0833 1248.5 51.0833C1265.23 51.0833 1278.92 63.25 1278.92 78.4583C1278.92 83.2985 1276.99 87.9405 1273.57 91.363C1270.15 94.7856 1265.51 96.7083 1260.67 96.7083H1255.19C1254.28 96.7083 1253.67 97.3167 1253.67 98.2292C1253.67 98.5333 1253.97 98.8375 1253.97 99.1417C1255.19 100.662 1255.8 102.487 1255.8 104.312C1256.1 108.571 1252.76 111.917 1248.5 111.917ZM1248.5 57.1667C1242.05 57.1667 1235.86 59.7303 1231.29 64.2937C1226.73 68.8571 1224.17 75.0464 1224.17 81.5C1224.17 87.9536 1226.73 94.1429 1231.29 98.7063C1235.86 103.27 1242.05 105.833 1248.5 105.833C1249.41 105.833 1250.02 105.225 1250.02 104.312C1250.02 103.704 1249.72 103.4 1249.72 103.096C1248.5 101.575 1247.89 100.054 1247.89 98.2292C1247.89 93.9708 1251.24 90.625 1255.5 90.625H1260.67C1263.89 90.625 1266.99 89.3432 1269.27 87.0615C1271.55 84.7798 1272.83 81.6851 1272.83 78.4583C1272.83 66.5958 1261.88 57.1667 1248.5 57.1667ZM1231.77 75.4167C1234.2 75.4167 1236.33 77.5458 1236.33 79.9792C1236.33 82.4125 1234.2 84.5417 1231.77 84.5417C1229.34 84.5417 1227.21 82.4125 1227.21 79.9792C1227.21 77.5458 1229.34 75.4167 1231.77 75.4167ZM1240.9 63.25C1243.33 63.25 1245.46 65.3792 1245.46 67.8125C1245.46 70.2458 1243.33 72.375 1240.9 72.375C1238.46 72.375 1236.33 70.2458 1236.33 67.8125C1236.33 65.3792 1238.46 63.25 1240.9 63.25ZM1256.1 63.25C1258.54 63.25 1260.67 65.3792 1260.67 67.8125C1260.67 70.2458 1258.54 72.375 1256.1 72.375C1253.67 72.375 1251.54 70.2458 1251.54 67.8125C1251.54 65.3792 1253.67 63.25 1256.1 63.25ZM1265.23 75.4167C1267.66 75.4167 1269.79 77.5458 1269.79 79.9792C1269.79 82.4125 1267.66 84.5417 1265.23 84.5417C1262.8 84.5417 1260.67 82.4125 1260.67 79.9792C1260.67 77.5458 1262.8 75.4167 1265.23 75.4167Z" fill="white"/>
</svg>
