<svg width="1363" height="163" viewBox="0 0 1363 163" fill="none" xmlns="http://www.w3.org/2000/svg">
<path d="M0 15C0 6.71573 6.71573 0 15 0H37V163H15C6.71573 163 0 156.284 0 148V15Z" fill="#424242"/>
<rect width="1097" height="163" transform="translate(37)" fill="#F0F0F0"/>
<path d="M101.906 53.9219L94.3945 51.2383V48.0859L104.602 52.375V54.6367L101.906 53.9219ZM94.3945 56.1719L101.918 53.4297L104.602 52.7852V55.0352L94.3945 59.3242V56.1719ZM122.32 43.9375H125.824V55.2109C125.824 56.5234 125.543 57.6289 124.98 58.5273C124.426 59.4258 123.656 60.1016 122.672 60.5547C121.695 61.0078 120.57 61.2344 119.297 61.2344C118.023 61.2344 116.891 61.0078 115.898 60.5547C114.914 60.1016 114.141 59.4258 113.578 58.5273C113.023 57.6289 112.746 56.5234 112.746 55.2109V43.9375H116.262V55.2109C116.262 55.9766 116.383 56.6016 116.625 57.0859C116.867 57.5703 117.215 57.9258 117.668 58.1523C118.129 58.3789 118.672 58.4922 119.297 58.4922C119.938 58.4922 120.48 58.3789 120.926 58.1523C121.379 57.9258 121.723 57.5703 121.957 57.0859C122.199 56.6016 122.32 55.9766 122.32 55.2109V43.9375ZM131.812 51.0273V61H128.438V48.3203H131.602L131.812 51.0273ZM131.32 54.2148H130.406C130.406 53.2773 130.527 52.4336 130.77 51.6836C131.012 50.9258 131.352 50.2812 131.789 49.75C132.227 49.2109 132.746 48.8008 133.348 48.5195C133.957 48.2305 134.637 48.0859 135.387 48.0859C135.98 48.0859 136.523 48.1719 137.016 48.3438C137.508 48.5156 137.93 48.7891 138.281 49.1641C138.641 49.5391 138.914 50.0352 139.102 50.6523C139.297 51.2695 139.395 52.0234 139.395 52.9141V61H135.996V52.9023C135.996 52.3398 135.918 51.9023 135.762 51.5898C135.605 51.2773 135.375 51.0586 135.07 50.9336C134.773 50.8008 134.406 50.7344 133.969 50.7344C133.516 50.7344 133.121 50.8242 132.785 51.0039C132.457 51.1836 132.184 51.4336 131.965 51.7539C131.754 52.0664 131.594 52.4336 131.484 52.8555C131.375 53.2773 131.32 53.7305 131.32 54.2148ZM145.523 48.3203V61H142.137V48.3203H145.523ZM141.926 45.0156C141.926 44.5234 142.098 44.1172 142.441 43.7969C142.785 43.4766 143.246 43.3164 143.824 43.3164C144.395 43.3164 144.852 43.4766 145.195 43.7969C145.547 44.1172 145.723 44.5234 145.723 45.0156C145.723 45.5078 145.547 45.9141 145.195 46.2344C144.852 46.5547 144.395 46.7148 143.824 46.7148C143.246 46.7148 142.785 46.5547 142.441 46.2344C142.098 45.9141 141.926 45.5078 141.926 45.0156ZM154.523 48.3203V50.7109H147.141V48.3203H154.523ZM148.969 45.1914H152.344V57.1797C152.344 57.5469 152.391 57.8281 152.484 58.0234C152.586 58.2188 152.734 58.3555 152.93 58.4336C153.125 58.5039 153.371 58.5391 153.668 58.5391C153.879 58.5391 154.066 58.5312 154.23 58.5156C154.402 58.4922 154.547 58.4688 154.664 58.4453L154.676 60.9297C154.387 61.0234 154.074 61.0977 153.738 61.1523C153.402 61.207 153.031 61.2344 152.625 61.2344C151.883 61.2344 151.234 61.1133 150.68 60.8711C150.133 60.6211 149.711 60.2227 149.414 59.6758C149.117 59.1289 148.969 58.4102 148.969 57.5195V45.1914ZM160.207 59.5703L163.57 48.3203H167.191L162.094 62.9102C161.984 63.2305 161.836 63.5742 161.648 63.9414C161.469 64.3086 161.223 64.6562 160.91 64.9844C160.605 65.3203 160.219 65.5938 159.75 65.8047C159.289 66.0156 158.723 66.1211 158.051 66.1211C157.73 66.1211 157.469 66.1016 157.266 66.0625C157.062 66.0234 156.82 65.9688 156.539 65.8984V63.4258C156.625 63.4258 156.715 63.4258 156.809 63.4258C156.902 63.4336 156.992 63.4375 157.078 63.4375C157.523 63.4375 157.887 63.3867 158.168 63.2852C158.449 63.1836 158.676 63.0273 158.848 62.8164C159.02 62.6133 159.156 62.3477 159.258 62.0195L160.207 59.5703ZM158.801 48.3203L161.555 57.5078L162.035 61.082L159.738 61.3281L155.18 48.3203H158.801ZM181.371 54.918H177.023V52.1758H181.371C182.043 52.1758 182.59 52.0664 183.012 51.8477C183.434 51.6211 183.742 51.3086 183.938 50.9102C184.133 50.5117 184.23 50.0625 184.23 49.5625C184.23 49.0547 184.133 48.582 183.938 48.1445C183.742 47.707 183.434 47.3555 183.012 47.0898C182.59 46.8242 182.043 46.6914 181.371 46.6914H178.242V61H174.727V43.9375H181.371C182.707 43.9375 183.852 44.1797 184.805 44.6641C185.766 45.1406 186.5 45.8008 187.008 46.6445C187.516 47.4883 187.77 48.4531 187.77 49.5391C187.77 50.6406 187.516 51.5938 187.008 52.3984C186.5 53.2031 185.766 53.8242 184.805 54.2617C183.852 54.6992 182.707 54.918 181.371 54.918ZM197.484 57.9648V48.3203H200.859V61H197.684L197.484 57.9648ZM197.859 55.3633L198.855 55.3398C198.855 56.1836 198.758 56.9688 198.562 57.6953C198.367 58.4141 198.074 59.0391 197.684 59.5703C197.293 60.0938 196.801 60.5039 196.207 60.8008C195.613 61.0898 194.914 61.2344 194.109 61.2344C193.492 61.2344 192.922 61.1484 192.398 60.9766C191.883 60.7969 191.438 60.5195 191.062 60.1445C190.695 59.7617 190.406 59.2734 190.195 58.6797C189.992 58.0781 189.891 57.3555 189.891 56.5117V48.3203H193.266V56.5352C193.266 56.9102 193.309 57.2266 193.395 57.4844C193.488 57.7422 193.617 57.9531 193.781 58.1172C193.945 58.2812 194.137 58.3984 194.355 58.4688C194.582 58.5391 194.832 58.5742 195.105 58.5742C195.801 58.5742 196.348 58.4336 196.746 58.1523C197.152 57.8711 197.438 57.4883 197.602 57.0039C197.773 56.5117 197.859 55.9648 197.859 55.3633ZM207 43V61H203.613V43H207ZM216.645 57.4961C216.645 57.2539 216.574 57.0352 216.434 56.8398C216.293 56.6445 216.031 56.4648 215.648 56.3008C215.273 56.1289 214.73 55.9727 214.02 55.832C213.379 55.6914 212.781 55.5156 212.227 55.3047C211.68 55.0859 211.203 54.8242 210.797 54.5195C210.398 54.2148 210.086 53.8555 209.859 53.4414C209.633 53.0195 209.52 52.5391 209.52 52C209.52 51.4688 209.633 50.9688 209.859 50.5C210.094 50.0312 210.426 49.6172 210.855 49.2578C211.293 48.8906 211.824 48.6055 212.449 48.4023C213.082 48.1914 213.793 48.0859 214.582 48.0859C215.684 48.0859 216.629 48.2617 217.418 48.6133C218.215 48.9648 218.824 49.4492 219.246 50.0664C219.676 50.6758 219.891 51.3711 219.891 52.1523H216.516C216.516 51.8242 216.445 51.5312 216.305 51.2734C216.172 51.0078 215.961 50.8008 215.672 50.6523C215.391 50.4961 215.023 50.418 214.57 50.418C214.195 50.418 213.871 50.4844 213.598 50.6172C213.324 50.7422 213.113 50.9141 212.965 51.1328C212.824 51.3438 212.754 51.5781 212.754 51.8359C212.754 52.0312 212.793 52.207 212.871 52.3633C212.957 52.5117 213.094 52.6484 213.281 52.7734C213.469 52.8984 213.711 53.0156 214.008 53.125C214.312 53.2266 214.688 53.3203 215.133 53.4062C216.047 53.5938 216.863 53.8398 217.582 54.1445C218.301 54.4414 218.871 54.8477 219.293 55.3633C219.715 55.8711 219.926 56.5391 219.926 57.3672C219.926 57.9297 219.801 58.4453 219.551 58.9141C219.301 59.3828 218.941 59.793 218.473 60.1445C218.004 60.4883 217.441 60.7578 216.785 60.9531C216.137 61.1406 215.406 61.2344 214.594 61.2344C213.414 61.2344 212.414 61.0234 211.594 60.6016C210.781 60.1797 210.164 59.6445 209.742 58.9961C209.328 58.3398 209.121 57.668 209.121 56.9805H212.32C212.336 57.4414 212.453 57.8125 212.672 58.0938C212.898 58.375 213.184 58.5781 213.527 58.7031C213.879 58.8281 214.258 58.8906 214.664 58.8906C215.102 58.8906 215.465 58.832 215.754 58.7148C216.043 58.5898 216.262 58.4258 216.41 58.2227C216.566 58.0117 216.645 57.7695 216.645 57.4961ZM227.953 61.2344C226.969 61.2344 226.086 61.0781 225.305 60.7656C224.523 60.4453 223.859 60.0039 223.312 59.4414C222.773 58.8789 222.359 58.2266 222.07 57.4844C221.781 56.7344 221.637 55.9375 221.637 55.0938V54.625C221.637 53.6641 221.773 52.7852 222.047 51.9883C222.32 51.1914 222.711 50.5 223.219 49.9141C223.734 49.3281 224.359 48.8789 225.094 48.5664C225.828 48.2461 226.656 48.0859 227.578 48.0859C228.477 48.0859 229.273 48.2344 229.969 48.5312C230.664 48.8281 231.246 49.25 231.715 49.7969C232.191 50.3438 232.551 51 232.793 51.7656C233.035 52.5234 233.156 53.3672 233.156 54.2969V55.7031H223.078V53.4531H229.84V53.1953C229.84 52.7266 229.754 52.3086 229.582 51.9414C229.418 51.5664 229.168 51.2695 228.832 51.0508C228.496 50.832 228.066 50.7227 227.543 50.7227C227.098 50.7227 226.715 50.8203 226.395 51.0156C226.074 51.2109 225.812 51.4844 225.609 51.8359C225.414 52.1875 225.266 52.6016 225.164 53.0781C225.07 53.5469 225.023 54.0625 225.023 54.625V55.0938C225.023 55.6016 225.094 56.0703 225.234 56.5C225.383 56.9297 225.59 57.3008 225.855 57.6133C226.129 57.9258 226.457 58.168 226.84 58.3398C227.23 58.5117 227.672 58.5977 228.164 58.5977C228.773 58.5977 229.34 58.4805 229.863 58.2461C230.395 58.0039 230.852 57.6406 231.234 57.1562L232.875 58.9375C232.609 59.3203 232.246 59.6875 231.785 60.0391C231.332 60.3906 230.785 60.6797 230.145 60.9062C229.504 61.125 228.773 61.2344 227.953 61.2344Z" fill="#888888"/>
<path d="M114.117 84.875H122.344V107.164C122.344 109.82 121.789 112.07 120.68 113.914C119.57 115.742 118.016 117.125 116.016 118.062C114.016 119 111.664 119.469 108.961 119.469C106.289 119.469 103.938 119 101.906 118.062C99.8906 117.125 98.3125 115.742 97.1719 113.914C96.0469 112.07 95.4844 109.82 95.4844 107.164V84.875H103.734V107.164C103.734 108.57 103.938 109.719 104.344 110.609C104.75 111.484 105.344 112.125 106.125 112.531C106.906 112.938 107.852 113.141 108.961 113.141C110.086 113.141 111.031 112.938 111.797 112.531C112.562 112.125 113.141 111.484 113.531 110.609C113.922 109.719 114.117 108.57 114.117 107.164V84.875ZM134.906 99.0547V119H127.008V93.6406H134.414L134.906 99.0547ZM133.969 105.453L132.117 105.5C132.117 103.562 132.352 101.836 132.82 100.32C133.289 98.7891 133.953 97.4922 134.812 96.4297C135.672 95.3672 136.695 94.5625 137.883 94.0156C139.086 93.4531 140.422 93.1719 141.891 93.1719C143.062 93.1719 144.133 93.3438 145.102 93.6875C146.086 94.0312 146.93 94.5859 147.633 95.3516C148.352 96.1172 148.898 97.1328 149.273 98.3984C149.664 99.6484 149.859 101.195 149.859 103.039V119H141.914V103.016C141.914 102 141.773 101.227 141.492 100.695C141.211 100.148 140.805 99.7734 140.273 99.5703C139.742 99.3672 139.094 99.2656 138.328 99.2656C137.516 99.2656 136.828 99.4219 136.266 99.7344C135.703 100.047 135.25 100.484 134.906 101.047C134.578 101.594 134.336 102.242 134.18 102.992C134.039 103.742 133.969 104.562 133.969 105.453ZM162.586 93.6406V119H154.664V93.6406H162.586ZM154.195 87.1016C154.195 85.9766 154.602 85.0547 155.414 84.3359C156.227 83.6172 157.281 83.2578 158.578 83.2578C159.875 83.2578 160.93 83.6172 161.742 84.3359C162.555 85.0547 162.961 85.9766 162.961 87.1016C162.961 88.2266 162.555 89.1484 161.742 89.8672C160.93 90.5859 159.875 90.9453 158.578 90.9453C157.281 90.9453 156.227 90.5859 155.414 89.8672C154.602 89.1484 154.195 88.2266 154.195 87.1016ZM180.82 93.6406V99.125H165.539V93.6406H180.82ZM168.75 87.3359H176.648V110.727C176.648 111.398 176.727 111.922 176.883 112.297C177.039 112.656 177.305 112.914 177.68 113.07C178.07 113.211 178.586 113.281 179.227 113.281C179.68 113.281 180.055 113.273 180.352 113.258C180.648 113.227 180.93 113.188 181.195 113.141V118.789C180.523 119.008 179.82 119.172 179.086 119.281C178.352 119.406 177.57 119.469 176.742 119.469C175.055 119.469 173.609 119.203 172.406 118.672C171.219 118.141 170.312 117.305 169.688 116.164C169.062 115.023 168.75 113.539 168.75 111.711V87.3359ZM211.406 84.875V119H203.18V84.875H211.406ZM221.672 84.875V91.2266H193.148V84.875H221.672ZM234.961 119.469C232.898 119.469 231.055 119.148 229.43 118.508C227.805 117.852 226.43 116.953 225.305 115.812C224.195 114.672 223.344 113.359 222.75 111.875C222.172 110.391 221.883 108.82 221.883 107.164V106.273C221.883 104.414 222.141 102.695 222.656 101.117C223.172 99.5234 223.938 98.1328 224.953 96.9453C225.969 95.7578 227.242 94.8359 228.773 94.1797C230.305 93.5078 232.086 93.1719 234.117 93.1719C235.914 93.1719 237.523 93.4609 238.945 94.0391C240.367 94.6172 241.57 95.4453 242.555 96.5234C243.555 97.6016 244.312 98.9062 244.828 100.438C245.359 101.969 245.625 103.688 245.625 105.594V108.805H224.906V103.859H237.914V103.25C237.93 102.406 237.781 101.688 237.469 101.094C237.172 100.5 236.734 100.047 236.156 99.7344C235.578 99.4219 234.875 99.2656 234.047 99.2656C233.188 99.2656 232.477 99.4531 231.914 99.8281C231.367 100.203 230.938 100.719 230.625 101.375C230.328 102.016 230.117 102.758 229.992 103.602C229.867 104.445 229.805 105.336 229.805 106.273V107.164C229.805 108.102 229.93 108.953 230.18 109.719C230.445 110.484 230.82 111.141 231.305 111.688C231.805 112.219 232.398 112.633 233.086 112.93C233.789 113.227 234.586 113.375 235.477 113.375C236.555 113.375 237.617 113.172 238.664 112.766C239.711 112.359 240.609 111.688 241.359 110.75L244.945 115.016C244.43 115.75 243.695 116.461 242.742 117.148C241.805 117.836 240.68 118.398 239.367 118.836C238.055 119.258 236.586 119.469 234.961 119.469ZM262.125 111.875C262.125 111.438 261.977 111.062 261.68 110.75C261.398 110.422 260.898 110.125 260.18 109.859C259.461 109.578 258.453 109.297 257.156 109.016C255.922 108.75 254.758 108.398 253.664 107.961C252.586 107.523 251.641 106.992 250.828 106.367C250.016 105.742 249.375 105 248.906 104.141C248.453 103.281 248.227 102.297 248.227 101.188C248.227 100.109 248.453 99.0938 248.906 98.1406C249.375 97.1719 250.055 96.3203 250.945 95.5859C251.852 94.8359 252.953 94.25 254.25 93.8281C255.547 93.3906 257.023 93.1719 258.68 93.1719C260.961 93.1719 262.93 93.5234 264.586 94.2266C266.242 94.9141 267.516 95.8828 268.406 97.1328C269.312 98.3672 269.766 99.7969 269.766 101.422H261.867C261.867 100.781 261.758 100.234 261.539 99.7812C261.336 99.3281 261 98.9844 260.531 98.75C260.062 98.5 259.438 98.375 258.656 98.375C258.109 98.375 257.609 98.4766 257.156 98.6797C256.719 98.8828 256.367 99.1641 256.102 99.5234C255.836 99.8828 255.703 100.305 255.703 100.789C255.703 101.133 255.781 101.445 255.938 101.727C256.109 101.992 256.367 102.242 256.711 102.477C257.055 102.695 257.492 102.898 258.023 103.086C258.555 103.258 259.195 103.414 259.945 103.555C261.648 103.867 263.242 104.312 264.727 104.891C266.211 105.469 267.414 106.289 268.336 107.352C269.273 108.414 269.742 109.844 269.742 111.641C269.742 112.766 269.484 113.805 268.969 114.758C268.453 115.695 267.711 116.523 266.742 117.242C265.773 117.945 264.609 118.492 263.25 118.883C261.891 119.273 260.359 119.469 258.656 119.469C256.234 119.469 254.188 119.039 252.516 118.18C250.844 117.305 249.578 116.211 248.719 114.898C247.875 113.57 247.453 112.227 247.453 110.867H254.812C254.844 111.648 255.031 112.289 255.375 112.789C255.734 113.289 256.211 113.656 256.805 113.891C257.398 114.125 258.086 114.242 258.867 114.242C259.586 114.242 260.18 114.141 260.648 113.938C261.133 113.734 261.5 113.461 261.75 113.117C262 112.758 262.125 112.344 262.125 111.875ZM286.805 93.6406V99.125H271.523V93.6406H286.805ZM274.734 87.3359H282.633V110.727C282.633 111.398 282.711 111.922 282.867 112.297C283.023 112.656 283.289 112.914 283.664 113.07C284.055 113.211 284.57 113.281 285.211 113.281C285.664 113.281 286.039 113.273 286.336 113.258C286.633 113.227 286.914 113.188 287.18 113.141V118.789C286.508 119.008 285.805 119.172 285.07 119.281C284.336 119.406 283.555 119.469 282.727 119.469C281.039 119.469 279.594 119.203 278.391 118.672C277.203 118.141 276.297 117.305 275.672 116.164C275.047 115.023 274.734 113.539 274.734 111.711V87.3359ZM298.289 93.6406V119H290.367V93.6406H298.289ZM289.898 87.1016C289.898 85.9766 290.305 85.0547 291.117 84.3359C291.93 83.6172 292.984 83.2578 294.281 83.2578C295.578 83.2578 296.633 83.6172 297.445 84.3359C298.258 85.0547 298.664 85.9766 298.664 87.1016C298.664 88.2266 298.258 89.1484 297.445 89.8672C296.633 90.5859 295.578 90.9453 294.281 90.9453C292.984 90.9453 291.93 90.5859 291.117 89.8672C290.305 89.1484 289.898 88.2266 289.898 87.1016ZM310.922 99.0547V119H303.023V93.6406H310.43L310.922 99.0547ZM309.984 105.453L308.133 105.5C308.133 103.562 308.367 101.836 308.836 100.32C309.305 98.7891 309.969 97.4922 310.828 96.4297C311.688 95.3672 312.711 94.5625 313.898 94.0156C315.102 93.4531 316.438 93.1719 317.906 93.1719C319.078 93.1719 320.148 93.3438 321.117 93.6875C322.102 94.0312 322.945 94.5859 323.648 95.3516C324.367 96.1172 324.914 97.1328 325.289 98.3984C325.68 99.6484 325.875 101.195 325.875 103.039V119H317.93V103.016C317.93 102 317.789 101.227 317.508 100.695C317.227 100.148 316.82 99.7734 316.289 99.5703C315.758 99.3672 315.109 99.2656 314.344 99.2656C313.531 99.2656 312.844 99.4219 312.281 99.7344C311.719 100.047 311.266 100.484 310.922 101.047C310.594 101.594 310.352 102.242 310.195 102.992C310.055 103.742 309.984 104.562 309.984 105.453ZM346.195 93.6406H353.367V118.016C353.367 120.359 352.828 122.344 351.75 123.969C350.672 125.609 349.164 126.852 347.227 127.695C345.305 128.555 343.055 128.984 340.477 128.984C339.336 128.984 338.172 128.836 336.984 128.539C335.797 128.258 334.688 127.836 333.656 127.273C332.625 126.711 331.758 126.016 331.055 125.188L334.359 120.547C335 121.266 335.805 121.875 336.773 122.375C337.742 122.891 338.883 123.148 340.195 123.148C341.336 123.148 342.289 122.945 343.055 122.539C343.836 122.133 344.43 121.539 344.836 120.758C345.242 119.992 345.445 119.062 345.445 117.969V99.6406L346.195 93.6406ZM329.344 106.625V106.133C329.344 104.211 329.578 102.461 330.047 100.883C330.531 99.2891 331.219 97.9219 332.109 96.7812C333.016 95.625 334.109 94.7344 335.391 94.1094C336.672 93.4844 338.117 93.1719 339.727 93.1719C341.461 93.1719 342.883 93.5078 343.992 94.1797C345.117 94.8359 346.016 95.7578 346.688 96.9453C347.375 98.1328 347.906 99.5234 348.281 101.117C348.672 102.695 349 104.398 349.266 106.227V106.812C349 108.531 348.633 110.156 348.164 111.688C347.711 113.203 347.117 114.547 346.383 115.719C345.648 116.891 344.727 117.812 343.617 118.484C342.523 119.141 341.211 119.469 339.68 119.469C338.086 119.469 336.648 119.148 335.367 118.508C334.102 117.867 333.016 116.969 332.109 115.812C331.219 114.656 330.531 113.297 330.047 111.734C329.578 110.172 329.344 108.469 329.344 106.625ZM337.242 106.133V106.625C337.242 107.578 337.328 108.461 337.5 109.273C337.688 110.086 337.969 110.805 338.344 111.43C338.719 112.039 339.18 112.516 339.727 112.859C340.289 113.203 340.945 113.375 341.695 113.375C342.836 113.375 343.758 113.133 344.461 112.648C345.164 112.164 345.672 111.477 345.984 110.586C346.297 109.695 346.43 108.648 346.383 107.445V105.594C346.414 104.562 346.344 103.656 346.172 102.875C346 102.078 345.727 101.414 345.352 100.883C344.992 100.352 344.508 99.9531 343.898 99.6875C343.305 99.4062 342.586 99.2656 341.742 99.2656C341.008 99.2656 340.359 99.4375 339.797 99.7812C339.234 100.125 338.766 100.609 338.391 101.234C338.016 101.844 337.727 102.57 337.523 103.414C337.336 104.242 337.242 105.148 337.242 106.133Z" fill="black"/>
<path d="M1134 0H1348C1356.28 0 1363 6.71573 1363 15V148C1363 156.284 1356.28 163 1348 163H1134V0Z" fill="#64CCC5"/>
<path d="M1210.62 43.625H1286.38V119.375H1210.62V43.625Z" fill="white" fill-opacity="0.01"/>
<path d="M1276.91 72.0312V105.172C1276.91 107.787 1274.79 109.906 1272.17 109.906H1224.83C1222.21 109.906 1220.09 107.787 1220.09 105.172V57.8281C1220.09 55.2134 1222.21 53.0938 1224.83 53.0938H1261.12" stroke="white" stroke-width="7.24" stroke-linecap="round" stroke-linejoin="round"/>
<path d="M1232.72 75.1875L1248.5 87.8125L1276.91 53.0938" stroke="white" stroke-width="7.24" stroke-linecap="round" stroke-linejoin="round"/>
</svg>
