<svg width="1363" height="163" viewBox="0 0 1363 163" fill="none" xmlns="http://www.w3.org/2000/svg">
<path d="M0 15C0 6.71573 6.71573 0 15 0H37V163H15C6.71573 163 0 156.284 0 148V15Z" fill="#424242"/>
<rect width="1097" height="163" transform="translate(37)" fill="#F0F0F0"/>
<path d="M101.906 53.9219L94.3945 51.2383V48.0859L104.602 52.375V54.6367L101.906 53.9219ZM94.3945 56.1719L101.918 53.4297L104.602 52.7852V55.0352L94.3945 59.3242V56.1719ZM122.32 43.9375H125.824V55.2109C125.824 56.5234 125.543 57.6289 124.98 58.5273C124.426 59.4258 123.656 60.1016 122.672 60.5547C121.695 61.0078 120.57 61.2344 119.297 61.2344C118.023 61.2344 116.891 61.0078 115.898 60.5547C114.914 60.1016 114.141 59.4258 113.578 58.5273C113.023 57.6289 112.746 56.5234 112.746 55.2109V43.9375H116.262V55.2109C116.262 55.9766 116.383 56.6016 116.625 57.0859C116.867 57.5703 117.215 57.9258 117.668 58.1523C118.129 58.3789 118.672 58.4922 119.297 58.4922C119.938 58.4922 120.48 58.3789 120.926 58.1523C121.379 57.9258 121.723 57.5703 121.957 57.0859C122.199 56.6016 122.32 55.9766 122.32 55.2109V43.9375ZM131.812 51.0273V61H128.438V48.3203H131.602L131.812 51.0273ZM131.32 54.2148H130.406C130.406 53.2773 130.527 52.4336 130.77 51.6836C131.012 50.9258 131.352 50.2812 131.789 49.75C132.227 49.2109 132.746 48.8008 133.348 48.5195C133.957 48.2305 134.637 48.0859 135.387 48.0859C135.98 48.0859 136.523 48.1719 137.016 48.3438C137.508 48.5156 137.93 48.7891 138.281 49.1641C138.641 49.5391 138.914 50.0352 139.102 50.6523C139.297 51.2695 139.395 52.0234 139.395 52.9141V61H135.996V52.9023C135.996 52.3398 135.918 51.9023 135.762 51.5898C135.605 51.2773 135.375 51.0586 135.07 50.9336C134.773 50.8008 134.406 50.7344 133.969 50.7344C133.516 50.7344 133.121 50.8242 132.785 51.0039C132.457 51.1836 132.184 51.4336 131.965 51.7539C131.754 52.0664 131.594 52.4336 131.484 52.8555C131.375 53.2773 131.32 53.7305 131.32 54.2148ZM145.523 48.3203V61H142.137V48.3203H145.523ZM141.926 45.0156C141.926 44.5234 142.098 44.1172 142.441 43.7969C142.785 43.4766 143.246 43.3164 143.824 43.3164C144.395 43.3164 144.852 43.4766 145.195 43.7969C145.547 44.1172 145.723 44.5234 145.723 45.0156C145.723 45.5078 145.547 45.9141 145.195 46.2344C144.852 46.5547 144.395 46.7148 143.824 46.7148C143.246 46.7148 142.785 46.5547 142.441 46.2344C142.098 45.9141 141.926 45.5078 141.926 45.0156ZM154.523 48.3203V50.7109H147.141V48.3203H154.523ZM148.969 45.1914H152.344V57.1797C152.344 57.5469 152.391 57.8281 152.484 58.0234C152.586 58.2188 152.734 58.3555 152.93 58.4336C153.125 58.5039 153.371 58.5391 153.668 58.5391C153.879 58.5391 154.066 58.5312 154.23 58.5156C154.402 58.4922 154.547 58.4688 154.664 58.4453L154.676 60.9297C154.387 61.0234 154.074 61.0977 153.738 61.1523C153.402 61.207 153.031 61.2344 152.625 61.2344C151.883 61.2344 151.234 61.1133 150.68 60.8711C150.133 60.6211 149.711 60.2227 149.414 59.6758C149.117 59.1289 148.969 58.4102 148.969 57.5195V45.1914ZM160.207 59.5703L163.57 48.3203H167.191L162.094 62.9102C161.984 63.2305 161.836 63.5742 161.648 63.9414C161.469 64.3086 161.223 64.6562 160.91 64.9844C160.605 65.3203 160.219 65.5938 159.75 65.8047C159.289 66.0156 158.723 66.1211 158.051 66.1211C157.73 66.1211 157.469 66.1016 157.266 66.0625C157.062 66.0234 156.82 65.9688 156.539 65.8984V63.4258C156.625 63.4258 156.715 63.4258 156.809 63.4258C156.902 63.4336 156.992 63.4375 157.078 63.4375C157.523 63.4375 157.887 63.3867 158.168 63.2852C158.449 63.1836 158.676 63.0273 158.848 62.8164C159.02 62.6133 159.156 62.3477 159.258 62.0195L160.207 59.5703ZM158.801 48.3203L161.555 57.5078L162.035 61.082L159.738 61.3281L155.18 48.3203H158.801ZM181.371 54.918H177.023V52.1758H181.371C182.043 52.1758 182.59 52.0664 183.012 51.8477C183.434 51.6211 183.742 51.3086 183.938 50.9102C184.133 50.5117 184.23 50.0625 184.23 49.5625C184.23 49.0547 184.133 48.582 183.938 48.1445C183.742 47.707 183.434 47.3555 183.012 47.0898C182.59 46.8242 182.043 46.6914 181.371 46.6914H178.242V61H174.727V43.9375H181.371C182.707 43.9375 183.852 44.1797 184.805 44.6641C185.766 45.1406 186.5 45.8008 187.008 46.6445C187.516 47.4883 187.77 48.4531 187.77 49.5391C187.77 50.6406 187.516 51.5938 187.008 52.3984C186.5 53.2031 185.766 53.8242 184.805 54.2617C183.852 54.6992 182.707 54.918 181.371 54.918ZM197.484 57.9648V48.3203H200.859V61H197.684L197.484 57.9648ZM197.859 55.3633L198.855 55.3398C198.855 56.1836 198.758 56.9688 198.562 57.6953C198.367 58.4141 198.074 59.0391 197.684 59.5703C197.293 60.0938 196.801 60.5039 196.207 60.8008C195.613 61.0898 194.914 61.2344 194.109 61.2344C193.492 61.2344 192.922 61.1484 192.398 60.9766C191.883 60.7969 191.438 60.5195 191.062 60.1445C190.695 59.7617 190.406 59.2734 190.195 58.6797C189.992 58.0781 189.891 57.3555 189.891 56.5117V48.3203H193.266V56.5352C193.266 56.9102 193.309 57.2266 193.395 57.4844C193.488 57.7422 193.617 57.9531 193.781 58.1172C193.945 58.2812 194.137 58.3984 194.355 58.4688C194.582 58.5391 194.832 58.5742 195.105 58.5742C195.801 58.5742 196.348 58.4336 196.746 58.1523C197.152 57.8711 197.438 57.4883 197.602 57.0039C197.773 56.5117 197.859 55.9648 197.859 55.3633ZM207 43V61H203.613V43H207ZM216.645 57.4961C216.645 57.2539 216.574 57.0352 216.434 56.8398C216.293 56.6445 216.031 56.4648 215.648 56.3008C215.273 56.1289 214.73 55.9727 214.02 55.832C213.379 55.6914 212.781 55.5156 212.227 55.3047C211.68 55.0859 211.203 54.8242 210.797 54.5195C210.398 54.2148 210.086 53.8555 209.859 53.4414C209.633 53.0195 209.52 52.5391 209.52 52C209.52 51.4688 209.633 50.9688 209.859 50.5C210.094 50.0312 210.426 49.6172 210.855 49.2578C211.293 48.8906 211.824 48.6055 212.449 48.4023C213.082 48.1914 213.793 48.0859 214.582 48.0859C215.684 48.0859 216.629 48.2617 217.418 48.6133C218.215 48.9648 218.824 49.4492 219.246 50.0664C219.676 50.6758 219.891 51.3711 219.891 52.1523H216.516C216.516 51.8242 216.445 51.5312 216.305 51.2734C216.172 51.0078 215.961 50.8008 215.672 50.6523C215.391 50.4961 215.023 50.418 214.57 50.418C214.195 50.418 213.871 50.4844 213.598 50.6172C213.324 50.7422 213.113 50.9141 212.965 51.1328C212.824 51.3438 212.754 51.5781 212.754 51.8359C212.754 52.0312 212.793 52.207 212.871 52.3633C212.957 52.5117 213.094 52.6484 213.281 52.7734C213.469 52.8984 213.711 53.0156 214.008 53.125C214.312 53.2266 214.688 53.3203 215.133 53.4062C216.047 53.5938 216.863 53.8398 217.582 54.1445C218.301 54.4414 218.871 54.8477 219.293 55.3633C219.715 55.8711 219.926 56.5391 219.926 57.3672C219.926 57.9297 219.801 58.4453 219.551 58.9141C219.301 59.3828 218.941 59.793 218.473 60.1445C218.004 60.4883 217.441 60.7578 216.785 60.9531C216.137 61.1406 215.406 61.2344 214.594 61.2344C213.414 61.2344 212.414 61.0234 211.594 60.6016C210.781 60.1797 210.164 59.6445 209.742 58.9961C209.328 58.3398 209.121 57.668 209.121 56.9805H212.32C212.336 57.4414 212.453 57.8125 212.672 58.0938C212.898 58.375 213.184 58.5781 213.527 58.7031C213.879 58.8281 214.258 58.8906 214.664 58.8906C215.102 58.8906 215.465 58.832 215.754 58.7148C216.043 58.5898 216.262 58.4258 216.41 58.2227C216.566 58.0117 216.645 57.7695 216.645 57.4961ZM227.953 61.2344C226.969 61.2344 226.086 61.0781 225.305 60.7656C224.523 60.4453 223.859 60.0039 223.312 59.4414C222.773 58.8789 222.359 58.2266 222.07 57.4844C221.781 56.7344 221.637 55.9375 221.637 55.0938V54.625C221.637 53.6641 221.773 52.7852 222.047 51.9883C222.32 51.1914 222.711 50.5 223.219 49.9141C223.734 49.3281 224.359 48.8789 225.094 48.5664C225.828 48.2461 226.656 48.0859 227.578 48.0859C228.477 48.0859 229.273 48.2344 229.969 48.5312C230.664 48.8281 231.246 49.25 231.715 49.7969C232.191 50.3438 232.551 51 232.793 51.7656C233.035 52.5234 233.156 53.3672 233.156 54.2969V55.7031H223.078V53.4531H229.84V53.1953C229.84 52.7266 229.754 52.3086 229.582 51.9414C229.418 51.5664 229.168 51.2695 228.832 51.0508C228.496 50.832 228.066 50.7227 227.543 50.7227C227.098 50.7227 226.715 50.8203 226.395 51.0156C226.074 51.2109 225.812 51.4844 225.609 51.8359C225.414 52.1875 225.266 52.6016 225.164 53.0781C225.07 53.5469 225.023 54.0625 225.023 54.625V55.0938C225.023 55.6016 225.094 56.0703 225.234 56.5C225.383 56.9297 225.59 57.3008 225.855 57.6133C226.129 57.9258 226.457 58.168 226.84 58.3398C227.23 58.5117 227.672 58.5977 228.164 58.5977C228.773 58.5977 229.34 58.4805 229.863 58.2461C230.395 58.0039 230.852 57.6406 231.234 57.1562L232.875 58.9375C232.609 59.3203 232.246 59.6875 231.785 60.0391C231.332 60.3906 230.785 60.6797 230.145 60.9062C229.504 61.125 228.773 61.2344 227.953 61.2344Z" fill="#888888"/>
<path d="M110.062 92.0469L101.742 119H92.9062L105.445 84.875H111.047L110.062 92.0469ZM116.953 119L108.609 92.0469L107.531 84.875H113.203L125.812 119H116.953ZM116.625 106.273V112.625H99.1172V106.273H116.625ZM135.258 115.906L142.055 84.875H146.109L148.312 87.5234L141.07 119H136.594L135.258 115.906ZM133.453 84.875L139.195 116.141L137.719 119H132.539L125.297 84.875H133.453ZM152.039 115.977L157.734 84.875H165.867L158.625 119H153.469L152.039 115.977ZM149.039 84.875L156 116.094L154.594 119H150.117L142.711 87.4766L145.008 84.875H149.039ZM186.68 109.93C186.68 109.398 186.602 108.922 186.445 108.5C186.289 108.062 186 107.656 185.578 107.281C185.156 106.906 184.547 106.531 183.75 106.156C182.969 105.766 181.938 105.359 180.656 104.938C179.156 104.438 177.711 103.875 176.32 103.25C174.93 102.609 173.688 101.867 172.594 101.023C171.5 100.164 170.633 99.1641 169.992 98.0234C169.352 96.8672 169.031 95.5234 169.031 93.9922C169.031 92.5234 169.359 91.2031 170.016 90.0312C170.672 88.8438 171.586 87.8359 172.758 87.0078C173.945 86.1641 175.336 85.5234 176.93 85.0859C178.523 84.6328 180.266 84.4062 182.156 84.4062C184.656 84.4062 186.859 84.8438 188.766 85.7188C190.688 86.5781 192.188 87.8047 193.266 89.3984C194.359 90.9766 194.906 92.8438 194.906 95H186.727C186.727 94.1406 186.547 93.3828 186.188 92.7266C185.844 92.0703 185.32 91.5547 184.617 91.1797C183.914 90.8047 183.031 90.6172 181.969 90.6172C180.938 90.6172 180.07 90.7734 179.367 91.0859C178.664 91.3984 178.133 91.8203 177.773 92.3516C177.414 92.8672 177.234 93.4375 177.234 94.0625C177.234 94.5781 177.375 95.0469 177.656 95.4688C177.953 95.875 178.367 96.2578 178.898 96.6172C179.445 96.9766 180.102 97.3203 180.867 97.6484C181.648 97.9766 182.523 98.2969 183.492 98.6094C185.305 99.1875 186.914 99.8359 188.32 100.555C189.742 101.258 190.938 102.062 191.906 102.969C192.891 103.859 193.633 104.875 194.133 106.016C194.648 107.156 194.906 108.445 194.906 109.883C194.906 111.414 194.609 112.773 194.016 113.961C193.422 115.148 192.57 116.156 191.461 116.984C190.352 117.797 189.023 118.414 187.477 118.836C185.93 119.258 184.203 119.469 182.297 119.469C180.547 119.469 178.82 119.25 177.117 118.812C175.43 118.359 173.898 117.672 172.523 116.75C171.148 115.812 170.047 114.617 169.219 113.164C168.406 111.695 168 109.953 168 107.938H176.25C176.25 108.938 176.383 109.781 176.648 110.469C176.914 111.156 177.305 111.711 177.82 112.133C178.336 112.539 178.969 112.836 179.719 113.023C180.469 113.195 181.328 113.281 182.297 113.281C183.344 113.281 184.188 113.133 184.828 112.836C185.469 112.523 185.938 112.117 186.234 111.617C186.531 111.102 186.68 110.539 186.68 109.93ZM222.188 119H214.617L214.664 112.672H222.188C223.75 112.672 225.07 112.297 226.148 111.547C227.242 110.797 228.07 109.68 228.633 108.195C229.211 106.695 229.5 104.852 229.5 102.664V101.188C229.5 99.5469 229.336 98.1094 229.008 96.875C228.695 95.625 228.227 94.5859 227.602 93.7578C226.977 92.9141 226.195 92.2812 225.258 91.8594C224.336 91.4375 223.273 91.2266 222.07 91.2266H214.477V84.875H222.07C224.383 84.875 226.5 85.2734 228.422 86.0703C230.359 86.8516 232.031 87.9766 233.438 89.4453C234.859 90.8984 235.953 92.625 236.719 94.625C237.5 96.6094 237.891 98.8125 237.891 101.234V102.664C237.891 105.07 237.5 107.273 236.719 109.273C235.953 111.273 234.867 113 233.461 114.453C232.055 115.906 230.391 117.031 228.469 117.828C226.562 118.609 224.469 119 222.188 119ZM219.328 84.875V119H211.102V84.875H219.328ZM254.086 119.469C252.023 119.469 250.18 119.148 248.555 118.508C246.93 117.852 245.555 116.953 244.43 115.812C243.32 114.672 242.469 113.359 241.875 111.875C241.297 110.391 241.008 108.82 241.008 107.164V106.273C241.008 104.414 241.266 102.695 241.781 101.117C242.297 99.5234 243.062 98.1328 244.078 96.9453C245.094 95.7578 246.367 94.8359 247.898 94.1797C249.43 93.5078 251.211 93.1719 253.242 93.1719C255.039 93.1719 256.648 93.4609 258.07 94.0391C259.492 94.6172 260.695 95.4453 261.68 96.5234C262.68 97.6016 263.438 98.9062 263.953 100.438C264.484 101.969 264.75 103.688 264.75 105.594V108.805H244.031V103.859H257.039V103.25C257.055 102.406 256.906 101.688 256.594 101.094C256.297 100.5 255.859 100.047 255.281 99.7344C254.703 99.4219 254 99.2656 253.172 99.2656C252.312 99.2656 251.602 99.4531 251.039 99.8281C250.492 100.203 250.062 100.719 249.75 101.375C249.453 102.016 249.242 102.758 249.117 103.602C248.992 104.445 248.93 105.336 248.93 106.273V107.164C248.93 108.102 249.055 108.953 249.305 109.719C249.57 110.484 249.945 111.141 250.43 111.688C250.93 112.219 251.523 112.633 252.211 112.93C252.914 113.227 253.711 113.375 254.602 113.375C255.68 113.375 256.742 113.172 257.789 112.766C258.836 112.359 259.734 111.688 260.484 110.75L264.07 115.016C263.555 115.75 262.82 116.461 261.867 117.148C260.93 117.836 259.805 118.398 258.492 118.836C257.18 119.258 255.711 119.469 254.086 119.469ZM275.93 98.5156V128.75H268.031V93.6406H275.391L275.93 98.5156ZM291.492 106.016V106.508C291.492 108.352 291.281 110.062 290.859 111.641C290.438 113.219 289.812 114.594 288.984 115.766C288.156 116.938 287.125 117.852 285.891 118.508C284.672 119.148 283.258 119.469 281.648 119.469C280.133 119.469 278.828 119.133 277.734 118.461C276.641 117.789 275.727 116.859 274.992 115.672C274.258 114.484 273.664 113.125 273.211 111.594C272.758 110.062 272.398 108.445 272.133 106.742V106.109C272.398 104.281 272.758 102.586 273.211 101.023C273.664 99.4453 274.258 98.0703 274.992 96.8984C275.727 95.7266 276.633 94.8125 277.711 94.1562C278.805 93.5 280.109 93.1719 281.625 93.1719C283.234 93.1719 284.648 93.4766 285.867 94.0859C287.102 94.6953 288.133 95.5703 288.961 96.7109C289.805 97.8359 290.438 99.1875 290.859 100.766C291.281 102.344 291.492 104.094 291.492 106.016ZM283.594 106.508V106.016C283.594 105.031 283.523 104.133 283.383 103.32C283.242 102.492 283.016 101.773 282.703 101.164C282.406 100.555 282.008 100.086 281.508 99.7578C281.008 99.4297 280.391 99.2656 279.656 99.2656C278.812 99.2656 278.102 99.3984 277.523 99.6641C276.961 99.9141 276.508 100.305 276.164 100.836C275.836 101.352 275.602 102 275.461 102.781C275.336 103.547 275.281 104.445 275.297 105.477V107.398C275.266 108.586 275.383 109.633 275.648 110.539C275.914 111.43 276.375 112.125 277.031 112.625C277.688 113.125 278.578 113.375 279.703 113.375C280.453 113.375 281.078 113.203 281.578 112.859C282.078 112.5 282.477 112.008 282.773 111.383C283.07 110.742 283.281 110.008 283.406 109.18C283.531 108.352 283.594 107.461 283.594 106.508ZM303.352 83V119H295.43V83H303.352ZM307.242 106.578V106.086C307.242 104.227 307.508 102.516 308.039 100.953C308.57 99.375 309.352 98.0078 310.383 96.8516C311.414 95.6953 312.688 94.7969 314.203 94.1562C315.719 93.5 317.469 93.1719 319.453 93.1719C321.453 93.1719 323.211 93.5 324.727 94.1562C326.258 94.7969 327.539 95.6953 328.57 96.8516C329.602 98.0078 330.383 99.375 330.914 100.953C331.445 102.516 331.711 104.227 331.711 106.086V106.578C331.711 108.422 331.445 110.133 330.914 111.711C330.383 113.273 329.602 114.641 328.57 115.812C327.539 116.969 326.266 117.867 324.75 118.508C323.234 119.148 321.484 119.469 319.5 119.469C317.516 119.469 315.758 119.148 314.227 118.508C312.695 117.867 311.414 116.969 310.383 115.812C309.352 114.641 308.57 113.273 308.039 111.711C307.508 110.133 307.242 108.422 307.242 106.578ZM315.141 106.086V106.578C315.141 107.531 315.211 108.422 315.352 109.25C315.492 110.078 315.727 110.805 316.055 111.43C316.383 112.039 316.828 112.516 317.391 112.859C317.953 113.203 318.656 113.375 319.5 113.375C320.328 113.375 321.016 113.203 321.562 112.859C322.125 112.516 322.57 112.039 322.898 111.43C323.227 110.805 323.461 110.078 323.602 109.25C323.742 108.422 323.812 107.531 323.812 106.578V106.086C323.812 105.164 323.742 104.297 323.602 103.484C323.461 102.656 323.227 101.93 322.898 101.305C322.57 100.664 322.125 100.164 321.562 99.8047C321 99.4453 320.297 99.2656 319.453 99.2656C318.625 99.2656 317.93 99.4453 317.367 99.8047C316.82 100.164 316.383 100.664 316.055 101.305C315.727 101.93 315.492 102.656 315.352 103.484C315.211 104.297 315.141 105.164 315.141 106.086ZM342.633 116.023L349.195 93.6406H357.68L347.484 122.773C347.266 123.414 346.977 124.102 346.617 124.836C346.258 125.586 345.766 126.297 345.141 126.969C344.516 127.641 343.711 128.188 342.727 128.609C341.758 129.031 340.555 129.242 339.117 129.242C338.352 129.242 337.789 129.203 337.43 129.125C337.086 129.062 336.555 128.945 335.836 128.773V123.125C336.039 123.125 336.211 123.125 336.352 123.125C336.508 123.125 336.68 123.125 336.867 123.125C337.711 123.125 338.383 123.039 338.883 122.867C339.398 122.695 339.789 122.445 340.055 122.117C340.336 121.789 340.555 121.391 340.711 120.922L342.633 116.023ZM340.969 93.6406L345.961 111.383L346.828 119.75H341.531L332.508 93.6406H340.969ZM367.711 99.0078V119H359.812V93.6406H367.219L367.711 99.0078ZM366.75 105.453L364.945 105.5C364.945 103.719 365.156 102.078 365.578 100.578C366 99.0781 366.625 97.7734 367.453 96.6641C368.281 95.5547 369.297 94.6953 370.5 94.0859C371.719 93.4766 373.125 93.1719 374.719 93.1719C375.828 93.1719 376.836 93.3438 377.742 93.6875C378.648 94.0156 379.43 94.5391 380.086 95.2578C380.742 95.9609 381.242 96.8828 381.586 98.0234C381.945 99.1484 382.125 100.5 382.125 102.078V119H374.227V103.086C374.227 102.008 374.102 101.195 373.852 100.648C373.617 100.102 373.273 99.7344 372.82 99.5469C372.367 99.3594 371.812 99.2656 371.156 99.2656C370.469 99.2656 369.852 99.4219 369.305 99.7344C368.758 100.047 368.289 100.484 367.898 101.047C367.523 101.594 367.234 102.242 367.031 102.992C366.844 103.742 366.75 104.562 366.75 105.453ZM381.234 105.453L379.031 105.5C379.031 103.719 379.227 102.078 379.617 100.578C380.023 99.0781 380.625 97.7734 381.422 96.6641C382.234 95.5547 383.242 94.6953 384.445 94.0859C385.648 93.4766 387.047 93.1719 388.641 93.1719C389.797 93.1719 390.859 93.3438 391.828 93.6875C392.797 94.0312 393.633 94.5859 394.336 95.3516C395.039 96.1172 395.586 97.1328 395.977 98.3984C396.367 99.6484 396.562 101.195 396.562 103.039V119H388.641V103.039C388.641 101.992 388.516 101.203 388.266 100.672C388.031 100.125 387.688 99.7578 387.234 99.5703C386.781 99.3672 386.242 99.2656 385.617 99.2656C384.867 99.2656 384.219 99.4219 383.672 99.7344C383.125 100.047 382.664 100.484 382.289 101.047C381.93 101.594 381.664 102.242 381.492 102.992C381.32 103.742 381.234 104.562 381.234 105.453ZM413.367 119.469C411.305 119.469 409.461 119.148 407.836 118.508C406.211 117.852 404.836 116.953 403.711 115.812C402.602 114.672 401.75 113.359 401.156 111.875C400.578 110.391 400.289 108.82 400.289 107.164V106.273C400.289 104.414 400.547 102.695 401.062 101.117C401.578 99.5234 402.344 98.1328 403.359 96.9453C404.375 95.7578 405.648 94.8359 407.18 94.1797C408.711 93.5078 410.492 93.1719 412.523 93.1719C414.32 93.1719 415.93 93.4609 417.352 94.0391C418.773 94.6172 419.977 95.4453 420.961 96.5234C421.961 97.6016 422.719 98.9062 423.234 100.438C423.766 101.969 424.031 103.688 424.031 105.594V108.805H403.312V103.859H416.32V103.25C416.336 102.406 416.188 101.688 415.875 101.094C415.578 100.5 415.141 100.047 414.562 99.7344C413.984 99.4219 413.281 99.2656 412.453 99.2656C411.594 99.2656 410.883 99.4531 410.32 99.8281C409.773 100.203 409.344 100.719 409.031 101.375C408.734 102.016 408.523 102.758 408.398 103.602C408.273 104.445 408.211 105.336 408.211 106.273V107.164C408.211 108.102 408.336 108.953 408.586 109.719C408.852 110.484 409.227 111.141 409.711 111.688C410.211 112.219 410.805 112.633 411.492 112.93C412.195 113.227 412.992 113.375 413.883 113.375C414.961 113.375 416.023 113.172 417.07 112.766C418.117 112.359 419.016 111.688 419.766 110.75L423.352 115.016C422.836 115.75 422.102 116.461 421.148 117.148C420.211 117.836 419.086 118.398 417.773 118.836C416.461 119.258 414.992 119.469 413.367 119.469ZM435 99.0547V119H427.102V93.6406H434.508L435 99.0547ZM434.062 105.453L432.211 105.5C432.211 103.562 432.445 101.836 432.914 100.32C433.383 98.7891 434.047 97.4922 434.906 96.4297C435.766 95.3672 436.789 94.5625 437.977 94.0156C439.18 93.4531 440.516 93.1719 441.984 93.1719C443.156 93.1719 444.227 93.3438 445.195 93.6875C446.18 94.0312 447.023 94.5859 447.727 95.3516C448.445 96.1172 448.992 97.1328 449.367 98.3984C449.758 99.6484 449.953 101.195 449.953 103.039V119H442.008V103.016C442.008 102 441.867 101.227 441.586 100.695C441.305 100.148 440.898 99.7734 440.367 99.5703C439.836 99.3672 439.188 99.2656 438.422 99.2656C437.609 99.2656 436.922 99.4219 436.359 99.7344C435.797 100.047 435.344 100.484 435 101.047C434.672 101.594 434.43 102.242 434.273 102.992C434.133 103.742 434.062 104.562 434.062 105.453ZM467.695 93.6406V99.125H452.414V93.6406H467.695ZM455.625 87.3359H463.523V110.727C463.523 111.398 463.602 111.922 463.758 112.297C463.914 112.656 464.18 112.914 464.555 113.07C464.945 113.211 465.461 113.281 466.102 113.281C466.555 113.281 466.93 113.273 467.227 113.258C467.523 113.227 467.805 113.188 468.07 113.141V118.789C467.398 119.008 466.695 119.172 465.961 119.281C465.227 119.406 464.445 119.469 463.617 119.469C461.93 119.469 460.484 119.203 459.281 118.672C458.094 118.141 457.188 117.305 456.562 116.164C455.938 115.023 455.625 113.539 455.625 111.711V87.3359Z" fill="black"/>
<path d="M1134 0H1348C1356.28 0 1363 6.71573 1363 15V148C1363 156.284 1356.28 163 1348 163H1134V0Z" fill="#64CCC5"/>
<path d="M1212.5 117.5L1212.5 45.5L1284.5 45.5L1284.5 117.5L1212.5 117.5Z" fill="white" fill-opacity="0.01"/>
<path d="M1221.5 81.5125L1221.5 108.5L1275.5 108.5L1275.5 81.5" stroke="white" stroke-width="7.24" stroke-linecap="round" stroke-linejoin="round"/>
<path d="M1262 68L1248.5 54.5L1235 68" stroke="white" stroke-width="7.24" stroke-linecap="round" stroke-linejoin="round"/>
<path d="M1248.49 93.5L1248.49 54.5" stroke="white" stroke-width="7.24" stroke-linecap="round" stroke-linejoin="round"/>
</svg>
